<?xml version="1.0" standalone="no"?>
<!DOCTYPE svg PUBLIC "-//W3C//DTD SVG 20010904//EN"
 "http://www.w3.org/TR/2001/REC-SVG-20010904/DTD/svg10.dtd">
<svg version="1.0" xmlns="http://www.w3.org/2000/svg"
 width="1024.000000pt" height="1024.000000pt" viewBox="0 0 1024.000000 1024.000000"
 preserveAspectRatio="xMidYMid meet">
<metadata>
Created by potrace 1.16, written by Peter Selinger 2001-2019
</metadata>
<g transform="translate(0.000000,1024.000000) scale(0.100000,-0.100000)"
fill="#000000" stroke="none">
<path d="M5750 8009 c-119 -14 -272 -40 -350 -59 -19 -5 -78 -19 -130 -30 -52
-12 -108 -26 -125 -31 -358 -110 -488 -160 -735 -282 -129 -63 -274 -141 -300
-162 -8 -7 -38 -25 -65 -40 l-50 -27 -78 45 c-131 78 -261 135 -482 212 -86
30 -336 85 -452 100 -211 26 -626 17 -795 -19 -155 -33 -346 -85 -401 -110
-18 -8 -50 -20 -72 -26 -102 -30 -357 -161 -495 -254 -158 -107 -412 -325
-406 -349 1 -7 1 -8 -2 -4 -6 11 -32 -13 -32 -29 0 -8 -4 -14 -10 -14 -5 0
-10 -9 -10 -20 0 -11 -4 -20 -8 -20 -4 0 -13 -20 -20 -45 -35 -132 20 -275
138 -356 69 -48 97 -55 255 -69 72 -6 146 -16 165 -22 186 -58 326 -138 437
-249 96 -95 160 -197 234 -374 29 -68 33 -164 38 -1020 3 -484 10 -886 14
-892 7 -10 399 -13 1906 -13 1462 0 1900 -3 1909 -12 9 -9 12 -169 12 -661 l0
-648 31 -65 c35 -72 86 -121 163 -153 94 -41 371 -23 566 36 47 14 90 29 95
32 6 4 30 13 55 20 92 26 352 177 384 223 9 12 16 19 16 14 0 -4 23 12 52 36
213 178 385 431 477 704 45 134 48 146 27 138 -13 -5 -30 -63 -31 -106 0 -10
-19 -40 -43 -68 -24 -28 -41 -54 -38 -59 3 -5 -1 -11 -9 -14 -7 -3 -17 -22
-21 -42 -3 -20 -13 -39 -20 -42 -8 -3 -14 -12 -14 -20 0 -30 -91 -170 -165
-253 -41 -47 -75 -89 -75 -93 0 -10 -82 -92 -104 -104 -9 -5 -54 -46 -100 -91
-81 -79 -133 -112 -174 -112 -11 0 -25 -6 -31 -14 -7 -8 -27 -18 -44 -21 -18
-4 -39 -13 -47 -19 -52 -43 -420 -133 -566 -139 -97 -5 -165 11 -230 53 -46
29 -93 76 -94 93 0 4 -9 27 -20 50 -21 41 -21 55 -19 698 l2 656 101 7 c56 3
119 11 141 18 28 8 255 13 785 15 436 2 749 8 754 13 6 6 1 12 -12 17 -11 4
-366 6 -789 3 -800 -6 -853 -9 -1033 -57 -14 -4 -873 -8 -1909 -10 l-1883 -3
7 117 c13 208 16 314 15 518 -1 110 -2 400 -3 645 -2 378 -5 458 -20 532 -10
47 -24 99 -32 115 -8 15 -15 34 -15 41 0 18 -51 126 -62 130 -4 2 -8 8 -8 14
0 6 -10 23 -22 38 -13 15 -32 40 -43 55 -90 126 -267 259 -439 329 -71 30
-193 56 -258 56 -141 1 -219 26 -308 102 -33 28 -65 144 -54 195 4 21 7 50 6
64 -2 15 3 33 11 41 8 8 17 23 21 33 15 47 310 312 423 381 17 10 69 42 115
70 288 177 571 281 939 344 101 18 168 22 359 22 241 1 326 -6 485 -42 50 -12
110 -25 135 -31 109 -23 356 -113 495 -181 130 -63 226 -120 221 -133 -2 -5
-8 -9 -14 -8 -11 3 -126 -73 -247 -162 -111 -82 -291 -241 -435 -385 -128
-127 -352 -378 -373 -417 -6 -10 -27 -38 -47 -63 -72 -89 -240 -345 -315 -480
-164 -297 -323 -692 -366 -912 -7 -33 -18 -66 -25 -73 -25 -25 -35 -68 -44
-192 -5 -67 -11 -126 -14 -131 -9 -15 -14 -118 -7 -131 5 -7 11 15 15 50 3 34
12 70 20 78 7 9 16 53 20 101 8 97 29 187 57 242 10 20 19 47 19 58 0 11 7 37
16 58 9 20 22 61 30 91 8 30 18 60 23 65 4 6 11 26 14 44 19 97 202 508 296
662 11 19 26 46 33 60 10 21 35 61 96 155 7 11 25 40 40 64 15 24 41 60 58 80
17 20 44 56 59 81 15 25 44 63 65 85 20 22 48 60 63 85 30 52 576 600 598 600
8 0 41 24 74 53 57 51 123 100 235 174 30 20 75 52 100 72 147 118 420 263
715 379 138 55 278 104 355 126 308 88 500 125 845 162 76 8 141 17 144 19 7
8 -259 3 -339 -6z"/>
<path d="M6542 8009 c10 -5 48 -12 85 -15 198 -16 567 -127 808 -244 300 -145
611 -386 824 -640 25 -30 52 -59 59 -63 6 -4 12 -12 12 -17 0 -5 10 -20 23
-34 48 -53 67 -80 67 -93 0 -7 5 -12 12 -11 6 2 14 -6 16 -17 2 -11 15 -33 28
-48 13 -16 24 -35 24 -43 0 -8 5 -14 11 -14 5 0 7 -4 4 -10 -3 -5 -2 -10 3
-10 6 0 13 -11 16 -25 4 -14 11 -25 16 -25 6 0 10 -6 10 -13 0 -7 9 -29 19
-50 10 -20 15 -39 11 -42 -4 -3 -22 24 -39 59 -17 36 -35 67 -40 71 -5 3 -26
33 -45 68 -47 80 -60 101 -67 107 -3 3 -20 27 -38 53 -43 63 -197 224 -206
215 -4 -4 31 -55 78 -113 140 -174 317 -459 361 -580 18 -50 68 -148 61 -117
-12 42 19 23 42 -25 27 -62 100 -359 108 -443 5 -63 20 -139 27 -144 1 -1 28
-13 58 -26 157 -70 302 -179 316 -237 3 -15 32 -71 64 -123 32 -52 79 -135
105 -185 46 -86 48 -88 41 -45 -4 25 -10 56 -13 70 -4 16 -2 21 4 15 10 -11
38 -95 35 -107 -1 -4 3 -20 9 -35 6 -15 13 -46 15 -68 2 -22 7 -65 11 -95 8
-66 8 -226 0 -269 -4 -17 -2 -31 3 -31 5 0 12 10 14 23 2 12 9 46 15 75 33
160 -9 419 -95 582 -100 190 -281 360 -476 446 -37 16 -70 36 -74 44 -3 8 -10
44 -15 80 -19 141 -21 155 -30 165 -5 5 -9 24 -9 42 0 18 -4 41 -9 51 -5 9
-16 49 -26 87 -9 39 -23 83 -31 99 -8 16 -14 34 -14 41 0 6 -9 30 -20 53 -11
22 -20 45 -20 51 0 5 -9 26 -19 48 -11 21 -36 74 -56 118 -66 143 -205 359
-318 495 -88 106 -317 333 -400 396 -354 270 -742 439 -1158 504 -87 13 -220
13 -197 -1z"/>
<path d="M1710 6361 c0 -5 9 -20 20 -34 11 -14 20 -29 20 -34 0 -5 10 -19 23
-31 32 -31 47 -48 115 -135 73 -92 122 -176 183 -309 44 -99 66 -126 54 -65
-23 106 -130 297 -253 449 -32 40 -62 81 -65 91 -4 10 -11 16 -15 13 -4 -2
-25 10 -45 29 -20 19 -37 30 -37 26z"/>
<path d="M7110 6201 c0 -5 9 -20 20 -34 11 -14 20 -28 20 -31 0 -3 -22 -6 -48
-6 -42 0 -58 -7 -119 -49 -75 -53 -103 -82 -149 -155 -16 -25 -35 -46 -41 -46
-7 0 -13 -12 -13 -26 0 -32 66 -175 111 -241 35 -51 189 -206 197 -198 3 2 -1
11 -8 20 -7 9 -10 18 -7 21 3 3 13 -3 23 -14 17 -20 18 -20 66 26 28 26 59 48
71 48 28 2 152 134 169 179 15 44 31 44 46 1 14 -39 49 -82 59 -73 3 4 -3 27
-15 51 -26 52 -28 68 -6 59 14 -5 16 -2 10 22 -4 15 -18 42 -32 60 -13 17 -24
35 -24 38 0 27 -186 263 -245 312 -43 35 -85 53 -85 36z m109 -150 c52 -35 86
-73 145 -161 60 -90 62 -100 29 -143 -16 -20 -43 -57 -61 -82 -18 -25 -56 -64
-85 -86 -50 -40 -53 -41 -107 -35 -30 4 -71 9 -90 10 -55 5 -66 13 -114 84
-84 126 -111 191 -88 218 5 5 14 28 22 51 7 24 30 58 54 81 98 95 210 119 295
63z"/>
<path d="M7040 5920 c0 -5 8 -10 17 -10 15 0 14 -2 -3 -15 -11 -8 -14 -15 -6
-15 18 0 15 -27 -4 -34 -9 -4 -14 -9 -10 -13 3 -3 15 2 25 11 19 17 19 17 14
-3 -4 -17 -2 -20 11 -15 23 9 20 1 -10 -25 l-26 -22 7 22 c5 13 3 19 -3 15
-16 -10 -44 5 -38 20 4 10 -3 14 -25 14 -24 0 -29 -4 -25 -17 3 -10 8 -31 12
-48 4 -16 15 -41 24 -55 9 -14 19 -33 23 -42 8 -23 96 -36 108 -17 6 10 3 15
-11 17 -27 4 -25 15 5 28 18 9 25 9 28 0 3 -8 8 -8 18 2 11 10 10 12 -4 12 -9
0 -17 5 -17 11 0 8 -4 8 -15 -1 -8 -6 -23 -9 -35 -5 -38 12 -10 23 46 19 53
-5 55 -4 44 15 -8 16 -8 21 1 21 7 0 5 8 -5 19 -10 11 -15 24 -12 29 3 6 -5
13 -19 16 -14 4 -25 10 -25 15 0 5 9 7 20 4 12 -3 20 0 20 6 0 7 -6 11 -12 10
-31 -4 -49 2 -65 21 -18 21 -53 27 -53 10z"/>
<path d="M9460 4578 c-7 -12 -25 -35 -41 -50 -16 -15 -29 -36 -29 -47 0 -12
-4 -21 -10 -21 -5 0 -10 -8 -10 -19 0 -10 -20 -49 -45 -87 -25 -37 -45 -73
-45 -80 0 -6 -7 -17 -15 -24 -9 -7 -14 -19 -11 -26 3 -7 -4 -16 -15 -19 -10
-4 -19 -12 -19 -18 -1 -7 -19 -25 -41 -42 -23 -16 -54 -43 -69 -59 -16 -16
-37 -30 -47 -31 -10 -1 -49 -16 -87 -33 -38 -18 -74 -32 -80 -32 -7 0 -16 -4
-21 -9 -6 -6 -37 -17 -70 -26 -166 -45 -174 -46 -585 -44 -217 2 -412 6 -432
9 -20 4 -41 4 -47 0 -7 -4 -11 -45 -11 -106 0 -54 -2 -108 -4 -119 -2 -11 -5
-24 -5 -30 -1 -5 -6 -3 -11 5 -8 12 -10 10 -10 -8 0 -13 4 -21 10 -17 5 3 8
-18 6 -55 -4 -61 8 -82 18 -32 6 30 36 285 36 308 0 12 62 14 393 15 371 0
464 5 582 28 81 16 105 23 111 32 3 5 18 9 34 9 18 0 34 8 44 21 8 12 21 19
29 16 20 -7 133 60 210 124 63 52 177 180 177 198 0 5 4 11 8 13 17 6 82 136
77 150 -4 9 0 18 8 21 15 5 44 94 34 103 -3 3 -11 -5 -17 -18z"/>
</g>
</svg>
