<?xml version="1.0" standalone="no"?>
<!DOCTYPE svg PUBLIC "-//W3C//DTD SVG 20010904//EN"
 "http://www.w3.org/TR/2001/REC-SVG-20010904/DTD/svg10.dtd">
<svg version="1.0" xmlns="http://www.w3.org/2000/svg"
 width="2289.000000pt" height="2289.000000pt" viewBox="0 0 2289.000000 2289.000000"
 preserveAspectRatio="xMidYMid meet">

<g transform="translate(0.000000,2289.000000) scale(0.100000,-0.100000)"
fill="#000000" stroke="none">
<path d="M14560 8965 c-58 -25 -118 -52 -135 -59 -135 -63 -371 -130 -615
-177 -82 -15 -393 -39 -515 -39 -174 1 -527 31 -570 50 -11 5 -38 11 -60 15
-59 10 -115 22 -160 35 -90 25 -202 49 -230 50 -16 0 -68 -14 -115 -30 -46
-17 -92 -30 -101 -30 -10 0 -39 -10 -66 -21 -26 -12 -67 -25 -91 -30 -24 -5
-58 -15 -75 -24 -18 -8 -61 -21 -95 -29 -35 -8 -72 -22 -81 -30 -10 -9 -33
-16 -52 -16 -19 0 -53 -9 -74 -21 -22 -11 -66 -23 -97 -26 -32 -3 -58 -9 -58
-13 0 -13 -51 -30 -90 -30 -22 0 -40 -4 -40 -9 0 -11 -39 -27 -105 -42 -27 -7
-53 -16 -56 -21 -3 -4 -32 -15 -64 -23 -32 -9 -64 -20 -69 -24 -6 -5 -36 -16
-66 -24 -88 -25 -164 -55 -168 -66 -2 -6 -8 -9 -13 -5 -5 3 -9 1 -9 -3 0 -5
-14 -10 -32 -11 -17 -2 -46 -11 -63 -22 -18 -11 -41 -20 -51 -20 -11 0 -40
-11 -66 -25 -26 -14 -59 -25 -73 -25 -14 0 -25 -4 -25 -8 0 -11 -45 -32 -69
-32 -10 0 -26 -9 -36 -20 -10 -11 -26 -20 -36 -20 -15 0 -98 -36 -139 -61 -8
-5 -26 -14 -40 -20 -28 -12 -104 -46 -137 -62 -13 -6 -23 -14 -23 -19 0 -4 -6
-8 -13 -8 -7 0 -79 -34 -161 -75 -82 -41 -152 -75 -157 -75 -5 0 -18 -9 -29
-20 -11 -11 -28 -20 -39 -20 -10 0 -24 -7 -31 -16 -8 -8 -27 -22 -44 -30 -43
-21 -86 -46 -116 -67 -13 -9 -31 -17 -40 -17 -9 0 -22 -9 -30 -20 -8 -11 -19
-20 -25 -20 -9 0 -104 -56 -130 -77 -32 -26 -110 -73 -122 -73 -7 0 -13 -4
-13 -10 0 -5 -23 -16 -51 -24 -52 -16 -157 -74 -196 -109 -12 -11 -49 -38 -81
-61 -170 -117 -266 -187 -350 -256 -52 -41 -106 -84 -120 -95 -73 -54 -172
-134 -212 -172 -68 -63 -101 -92 -140 -121 -73 -55 -284 -255 -519 -491 -208
-210 -305 -315 -449 -486 -14 -16 -48 -55 -76 -86 -63 -68 -137 -159 -216
-264 -33 -44 -95 -126 -137 -182 -43 -57 -105 -141 -138 -188 -33 -47 -68 -95
-77 -107 -28 -33 -218 -324 -252 -384 -9 -16 -28 -47 -42 -69 -13 -22 -31 -53
-39 -70 -9 -16 -34 -59 -56 -95 -23 -36 -52 -85 -66 -110 -14 -25 -33 -56 -42
-70 -10 -14 -85 -162 -168 -330 -151 -305 -246 -513 -323 -710 -23 -58 -50
-125 -60 -150 -10 -25 -23 -58 -29 -75 -5 -16 -30 -86 -54 -155 -25 -69 -47
-134 -50 -145 -3 -11 -19 -58 -37 -105 -17 -47 -42 -125 -56 -175 -13 -49 -33
-119 -44 -155 -42 -140 -71 -248 -84 -310 -8 -36 -21 -92 -30 -125 -9 -32 -16
-69 -16 -81 0 -11 -8 -45 -18 -75 -11 -30 -22 -82 -25 -117 -4 -35 -14 -87
-22 -115 -8 -29 -19 -88 -24 -132 -5 -44 -14 -98 -21 -120 -6 -22 -15 -90 -20
-151 -4 -60 -15 -150 -23 -200 -16 -91 -47 -450 -47 -537 l0 -47 7673 2 7672
3 35 22 c19 13 43 23 53 23 9 0 17 4 17 9 0 5 15 14 33 22 36 14 184 97 207
116 8 7 47 36 86 65 85 63 164 134 164 149 0 5 8 12 18 16 17 6 112 98 112
108 0 3 22 28 48 55 26 27 54 61 62 76 8 15 26 39 40 54 14 15 39 54 55 86 17
33 34 62 38 65 15 11 68 115 69 136 1 4 9 14 19 21 11 7 19 20 19 28 0 8 11
36 24 62 13 26 26 64 29 85 3 20 12 44 20 51 8 8 17 37 21 63 3 27 12 58 20
69 8 11 17 60 21 109 3 49 12 93 18 97 18 11 24 110 23 358 -2 198 -5 241 -19
272 -10 21 -20 70 -23 108 -4 39 -15 88 -25 108 -11 20 -19 51 -19 70 0 19 -9
45 -20 59 -11 14 -20 35 -20 45 0 11 -8 37 -19 57 -10 20 -26 53 -34 74 -9 20
-22 37 -27 37 -6 0 -9 4 -6 8 7 11 -31 92 -44 92 -5 0 -9 3 -8 8 3 12 -13 52
-21 52 -5 0 -14 13 -21 29 -6 16 -18 32 -27 35 -8 3 -11 10 -8 16 3 5 1 10 -4
10 -6 0 -10 3 -9 8 4 10 -112 162 -123 162 -6 0 -8 4 -4 9 3 5 -6 18 -20 29
-14 11 -25 24 -25 29 0 24 -311 293 -338 293 -6 0 -12 7 -15 15 -4 8 -22 21
-42 29 -20 9 -43 22 -51 31 -19 19 -142 90 -171 99 -11 4 -27 13 -33 21 -7 8
-24 15 -38 15 -14 0 -35 9 -46 19 -12 11 -34 21 -51 23 -28 3 -116 49 -141 73
-6 6 -12 45 -13 88 -1 43 -9 94 -18 115 -8 20 -17 73 -20 117 -4 85 -21 165
-33 165 -4 0 -7 6 -7 13 5 51 -28 217 -43 217 -3 0 -6 8 -7 18 -4 68 -13 112
-28 147 -10 22 -19 56 -22 75 -2 19 -13 62 -24 95 -12 33 -23 70 -25 82 -2 12
-13 43 -24 68 -11 26 -20 54 -20 63 0 15 -36 114 -66 180 -9 18 -18 45 -20 60
-5 31 -42 111 -85 188 -10 19 -17 34 -14 34 2 0 -15 42 -39 93 -23 50 -51 110
-61 132 -10 22 -36 69 -57 104 -21 34 -38 67 -38 72 0 5 -4 9 -10 9 -5 0 -10
6 -10 13 0 26 -102 208 -122 215 -4 2 -6 7 -3 12 5 9 -142 234 -228 350 -31
41 -57 81 -57 88 0 6 -4 12 -8 12 -4 0 -15 12 -24 28 -10 15 -37 49 -62 76
-25 27 -42 54 -39 59 3 6 1 7 -5 3 -6 -3 -13 3 -17 14 -3 11 -46 61 -95 112
-49 51 -90 97 -90 101 0 17 -357 377 -373 377 -4 0 -17 10 -30 23 -124 117
-169 157 -178 157 -5 0 -9 7 -9 15 0 8 -5 15 -11 15 -6 0 -25 12 -43 26 -17
14 -44 35 -59 47 -16 12 -37 30 -48 40 -10 9 -22 17 -25 17 -3 0 -26 14 -52
32 -26 18 -48 31 -50 30 -2 -2 -11 5 -20 15 -22 25 -92 77 -92 69 0 -3 -25 14
-55 39 -31 25 -60 45 -65 45 -4 0 -22 12 -39 26 -17 14 -31 22 -31 18 0 -4
-10 1 -22 12 -13 11 -36 26 -51 32 -15 7 -30 19 -33 27 -4 8 -16 15 -29 15
-12 0 -28 7 -36 16 -13 16 -48 36 -125 73 -23 11 -45 24 -48 30 -4 6 -16 11
-27 11 -11 0 -29 9 -41 20 -19 17 -42 25 -51 18 -1 -2 -13 7 -27 20 -13 12
-28 22 -33 22 -6 0 -44 16 -86 36 -42 20 -113 54 -158 75 -44 22 -88 39 -96
39 -8 0 -26 9 -40 20 -14 11 -34 20 -45 20 -26 0 -75 18 -82 30 -3 5 -22 12
-42 15 -19 3 -53 15 -74 25 -21 11 -50 20 -64 20 -14 0 -39 9 -56 19 -17 10
-50 21 -74 25 -24 3 -50 12 -59 20 -9 8 -45 22 -81 31 -36 9 -70 21 -76 26 -5
4 -35 15 -66 23 -31 8 -69 21 -84 29 -16 8 -45 18 -64 21 -19 4 -74 21 -122
37 -47 16 -95 29 -107 29 -11 0 -45 9 -75 20 -29 11 -90 25 -135 30 -44 5 -89
14 -100 20 -38 20 -95 10 -201 -35z"/>
</g>
</svg>
